<svg xmlns="http://www.w3.org/2000/svg" viewBox="0 0 980 982"><defs><style>.cls-1{fill:#8c8c8c;}.cls-2{fill:#8b8b8b;}</style></defs><title>sword</title><g id="Layer_2" data-name="Layer 2"><g id="Layer_1-2" data-name="Layer 1"><path d="M980,22c-3.08,6.67-3.26,14-4.73,21-14.82,71-31,141.62-46.66,212.4-4,18.35-8.51,36.6-12.32,55a19.42,19.42,0,0,1-7.73,12.06C863,358.35,816.73,393.19,770.45,428.06c-72.73,54.8-145.32,109.78-218.8,163.57-12.08,8.85-24.24,17.61-37.21,25.13-1,.58-2,1.13-3.07,1.66-9,4.59-12.62,3.71-18-4.4-4.45-6.68-3.28-14.17,3.29-19.32,48-37.6,96.7-74.18,145.41-110.79Q761.62,394,881.31,304.3a9.26,9.26,0,0,0,4.07-5.83Q910,186.18,934.86,73.94a7.53,7.53,0,0,0-.21-1.29c-1.89,1.79-3.5,3.27-5.06,4.8-94.5,92.87-188,186.68-281.85,280.23-58.53,58.37-116.59,117.2-176,174.64-7.43,7.17-14.7,14.53-23,20.71-6.09,4.52-13.57,3.77-18.89-1.72-5-5.21-5.73-12.83-1.31-18.51,9.44-12.12,20.39-22.89,31.15-33.79,148.2-150.17,298-298.75,447-448.09A68.25,68.25,0,0,1,912,46.49l-.8-1.17c-12,2.61-24,5.18-35.92,7.84Q779.41,74.48,683.49,95.72a9.85,9.85,0,0,0-6.24,4.29Q574,237.67,470.69,375.25C443.55,411.3,415.94,447,388.47,482.78c-8.07,10.51-17.35,10.7-26.09.91a7.29,7.29,0,0,1-1.72-7.79c1.84-5.6,4.91-10.54,8.11-15.39,22.55-34.21,47.55-66.66,72.11-99.42Q549.36,216.45,658.08,72a14.64,14.64,0,0,1,9.17-6Q776.06,41.85,884.82,17.46c25.65-5.71,51.37-11.1,77.07-16.63C963.4.22,965,.64,966.53.52,973.34.38,977.73,3.68,980,10Z"/><path d="M0,803c2.42-7.08,7.45-12.36,12.34-17.71,12-13.16,24.4-26,37.69-37.91,10-8.93,28-9.75,38.76-1.72,7,5.18,13.16,11.25,19.36,17.29,2.11,2.06,3.32,2.76,5.85.22q73.23-73.49,146.7-146.7c2.24-2.23,2-3.27-.07-5.41-19.55-20-39.44-39.7-57.89-60.8-21-24-25.47-51.85-19.56-81.77,3.18-16.08,13.25-29.23,23.2-42a76.26,76.26,0,0,1,12.68-13.4c6.67-5.27,11.33-5.24,17.62.55,28.7,26.41,56.24,54,83.94,81.45Q433.06,606.39,544.2,719c8,8.2,16.11,16.42,23.33,25.39,5.64,7,6.19,11.57.22,18.24-34.3,38.38-89.52,56.32-137.16,15.52-20.66-17.69-39.75-37-58.84-56.31-2.85-2.89-4.29-3.53-7.6-.2q-72.43,72.84-145.25,145.3c-2.87,2.85-2.55,4.27.08,6.86,6.06,5.94,12,12,16.5,19.34,8.72,14.14,8.06,26.24-2.59,38.83a337.48,337.48,0,0,1-37.13,37.73c-6,5.22-12.4,10.12-20.66,11.47-2,.69-4.1.17-6.14.34-8.89,1.14-14.64-4.51-20.36-9.8C106.45,932.72,66.38,891.62,26,850.9c-7.23-7.28-14.36-14.77-21-22.68C1.89,824.57,1.07,820.3,0,816Z"/><path class="cls-1" d="M168,982a2.75,2.75,0,0,1-.13-.81l7.23,0a3.47,3.47,0,0,0-.1.85Z"/><path class="cls-2" d="M967,0a3.69,3.69,0,0,1,.12.81l-5.23,0c0-.28.07-.55.11-.83Z"/></g></g></svg>